HIERARCHY
ROOT newVegas:Hips
{
	OFFSET 0.000000 96.479958 0.000000
	CHANNELS 6 Xposition Yposition Zposition Xrotation Yrotation Zrotation
	JOINT newVegas:Pelvis
	{
		OFFSET 0.000000 0.000000 0.000000
		CHANNELS 3 Xrotation Yrotation Zrotation
		JOINT newVegas:LeftUpLeg
		{
			OFFSET 18.735201 -5.666702 -4.541200
			CHANNELS 3 Xrotation Yrotation Zrotation
			JOINT newVegas:LeftLeg
			{
				OFFSET -0.021200 -31.938179 0.493100
				CHANNELS 3 Xrotation Yrotation Zrotation
				JOINT newVegas:LeftFoot
				{
					OFFSET 0.021200 -31.938179 -4.336299
					CHANNELS 3 Xrotation Yrotation Zrotation
					JOINT newVegas:LeftToeBase
					{
						OFFSET 0.943001 -26.722000 15.023500
						CHANNELS 3 Xrotation Yrotation Zrotation
						End Site
						{
							OFFSET 0.000000 30.670183 0.000000
						}
					}
				}
				JOINT newVegas:Left_PantLeg
				{
					OFFSET 0.663870 -9.044666 -1.108900
					CHANNELS 3 Xrotation Yrotation Zrotation
					End Site
					{
						OFFSET 1.415995 20.635357 0.000000
					}
				}
			}
		}
		JOINT newVegas:RightUpLeg
		{
			OFFSET -18.735201 -5.666702 -4.541200
			CHANNELS 3 Xrotation Yrotation Zrotation
			JOINT newVegas:RightLeg
			{
				OFFSET 0.018946 -31.938133 0.493100
				CHANNELS 3 Xrotation Yrotation Zrotation
				JOINT newVegas:RightFoot
				{
					OFFSET -0.018946 -31.938126 -4.336299
					CHANNELS 3 Xrotation Yrotation Zrotation
					JOINT newVegas:RightToeBase
					{
						OFFSET -0.943001 -26.722004 15.023500
						CHANNELS 3 Xrotation Yrotation Zrotation
						End Site
						{
							OFFSET 0.000000 30.670187 0.000000
						}
					}
				}
				JOINT newVegas:Right_PantLeg
				{
					OFFSET -0.661674 -9.044716 -1.108900
					CHANNELS 3 Xrotation Yrotation Zrotation
					End Site
					{
						OFFSET -1.415958 20.635269 0.000000
					}
				}
			}
		}
	}
	JOINT newVegas:Spine
	{
		OFFSET 0.000000 10.199997 -0.299500
		CHANNELS 3 Xrotation Yrotation Zrotation
		JOINT newVegas:Spine1
		{
			OFFSET 0.000000 11.900002 -1.516600
			CHANNELS 3 Xrotation Yrotation Zrotation
			JOINT newVegas:Spine2
			{
				OFFSET 0.000000 13.600006 -2.842500
				CHANNELS 3 Xrotation Yrotation Zrotation
				JOINT newVegas:Neck
				{
					OFFSET 0.000000 9.624100 -2.890100
					CHANNELS 3 Xrotation Yrotation Zrotation
					JOINT newVegas:Head
					{
						OFFSET 0.000000 14.068802 -1.351900
						CHANNELS 3 Xrotation Yrotation Zrotation
						JOINT newVegas:Hair_Back
						{
							OFFSET 0.000000 3.231903 -17.524799
							CHANNELS 3 Xrotation Yrotation Zrotation
							End Site
							{
								OFFSET 0.000000 19.849884 0.000000
							}
						}
						JOINT newVegas:Hair_Front
						{
							OFFSET 0.000000 31.260406 4.573800
							CHANNELS 3 Xrotation Yrotation Zrotation
							JOINT newVegas:Hair_Front1
							{
								OFFSET 0.000000 2.284103 11.993300
								CHANNELS 3 Xrotation Yrotation Zrotation
								JOINT newVegas:Hair_Front2
								{
									OFFSET 0.000000 2.284103 11.993300
									CHANNELS 3 Xrotation Yrotation Zrotation
									End Site
									{
										OFFSET 0.000000 12.208862 0.000000
									}
								}
							}
						}
						JOINT newVegas:Jowel
						{
							OFFSET 0.000000 -7.458206 6.864100
							CHANNELS 3 Xrotation Yrotation Zrotation
							End Site
							{
								OFFSET 0.000000 19.849884 0.000000
							}
						}
					}
				}
				JOINT newVegas:LeftShoulder
				{
					OFFSET 15.263000 10.923401 -0.547700
					CHANNELS 3 Xrotation Yrotation Zrotation
					JOINT newVegas:LeftArm
					{
						OFFSET 25.438599 -2.830597 -13.032500
						CHANNELS 3 Xrotation Yrotation Zrotation
						JOINT newVegas:LeftForeArm
						{
							OFFSET 29.960503 0.000000 0.000000
							CHANNELS 3 Xrotation Yrotation Zrotation
							JOINT newVegas:LeftHand
							{
								OFFSET 27.849251 0.000000 0.000000
								CHANNELS 3 Xrotation Yrotation Zrotation
								JOINT newVegas:LeftHandThumb1
								{
									OFFSET 4.487587 -3.305161 6.305391
									CHANNELS 3 Xrotation Yrotation Zrotation
									JOINT newVegas:LeftHandThumb2
									{
										OFFSET 5.480453 -3.164139 3.164143
										CHANNELS 3 Xrotation Yrotation Zrotation
										JOINT newVegas:LeftHandThumb3
										{
											OFFSET 5.159721 -2.978973 2.978967
											CHANNELS 3 Xrotation Yrotation Zrotation
											End Site
											{
												OFFSET 2.494507 5.926697 1.738678
											}
										}
									}
								}
								JOINT newVegas:LeftHandIndex1
								{
									OFFSET 18.578728 -0.527832 5.208049
									CHANNELS 3 Xrotation Yrotation Zrotation
									JOINT newVegas:LeftHandIndex2
									{
										OFFSET 3.192009 0.000000 0.000000
										CHANNELS 3 Xrotation Yrotation Zrotation
										JOINT newVegas:LeftHandIndex3
										{
											OFFSET 3.835129 0.000000 0.000000
											CHANNELS 3 Xrotation Yrotation Zrotation
											End Site
											{
												OFFSET -0.034599 3.816971 0.371180
											}
										}
									}
								}
								JOINT newVegas:LeftHandMiddle1
								{
									OFFSET 18.476105 0.000000 0.000000
									CHANNELS 3 Xrotation Yrotation Zrotation
									JOINT newVegas:LeftHandMiddle2
									{
										OFFSET 3.324875 0.000000 0.000000
										CHANNELS 3 Xrotation Yrotation Zrotation
										JOINT newVegas:LeftHandMiddle3
										{
											OFFSET 4.596550 0.000000 0.000000
											CHANNELS 3 Xrotation Yrotation Zrotation
											End Site
											{
												OFFSET 0.057701 4.578827 0.399218
											}
										}
									}
								}
								JOINT newVegas:LeftHandRing1
								{
									OFFSET 17.732719 0.121887 -4.201567
									CHANNELS 3 Xrotation Yrotation Zrotation
									JOINT newVegas:LeftHandRing2
									{
										OFFSET 2.733170 0.000000 0.000000
										CHANNELS 3 Xrotation Yrotation Zrotation
										JOINT newVegas:LeftHandRing3
										{
											OFFSET 3.178268 0.000000 0.000000
											CHANNELS 3 Xrotation Yrotation Zrotation
											End Site
											{
												OFFSET 0.119102 3.170624 0.185394
											}
										}
									}
								}
								JOINT newVegas:LeftHandPinky1
								{
									OFFSET 15.989624 -0.606689 -7.535461
									CHANNELS 3 Xrotation Yrotation Zrotation
									JOINT newVegas:LeftHandPinky2
									{
										OFFSET 2.538986 0.000000 0.000000
										CHANNELS 3 Xrotation Yrotation Zrotation
										JOINT newVegas:LeftHandPinky3
										{
											OFFSET 2.593102 0.000000 0.000000
											CHANNELS 3 Xrotation Yrotation Zrotation
											End Site
											{
												OFFSET -0.150902 2.584198 0.152708
											}
										}
									}
								}
							}
							JOINT newVegas:Left_Sleeve
							{
								OFFSET 0.267448 -0.649796 0.577675
								CHANNELS 3 Xrotation Yrotation Zrotation
								End Site
								{
									OFFSET 0.000000 15.991241 0.000000
								}
							}
							JOINT newVegas:Left_CapeC
							{
								OFFSET 15.715958 -8.608795 -6.935905
								CHANNELS 3 Xrotation Yrotation Zrotation
								JOINT newVegas:Left_CapeC1
								{
									OFFSET 0.000000 -8.688499 0.000000
									CHANNELS 3 Xrotation Yrotation Zrotation
									End Site
									{
										OFFSET 0.000000 8.688499 0.000000
									}
								}
							}
						}
						JOINT newVegas:Left_CapeB
						{
							OFFSET 26.118385 -8.608795 -7.079235
							CHANNELS 3 Xrotation Yrotation Zrotation
							JOINT newVegas:Left_CapeB1
							{
								OFFSET 0.000000 -8.688499 0.000000
								CHANNELS 3 Xrotation Yrotation Zrotation
								End Site
								{
									OFFSET 0.000000 8.688499 0.000000
								}
							}
						}
						JOINT newVegas:Left_CapeA
						{
							OFFSET 5.115639 -8.608795 -10.395809
							CHANNELS 3 Xrotation Yrotation Zrotation
							JOINT newVegas:Left_CapeA1
							{
								OFFSET 0.000000 -8.688499 0.000000
								CHANNELS 3 Xrotation Yrotation Zrotation
								End Site
								{
									OFFSET 0.000000 8.688499 0.000000
								}
							}
						}
					}
				}
				JOINT newVegas:RightShoulder
				{
					OFFSET -15.263000 10.923401 -0.547700
					CHANNELS 3 Xrotation Yrotation Zrotation
					JOINT newVegas:RightArm
					{
						OFFSET -25.438599 -2.830597 -13.032500
						CHANNELS 3 Xrotation Yrotation Zrotation
						JOINT newVegas:RightForeArm
						{
							OFFSET -29.960503 0.000000 0.000000
							CHANNELS 3 Xrotation Yrotation Zrotation
							JOINT newVegas:RightHand
							{
								OFFSET -27.849251 0.000000 0.000000
								CHANNELS 3 Xrotation Yrotation Zrotation
								JOINT newVegas:RightHandThumb1
								{
									OFFSET -4.487587 -3.305161 6.305391
									CHANNELS 3 Xrotation Yrotation Zrotation
									JOINT newVegas:RightHandThumb2
									{
										OFFSET -5.480453 -3.164139 3.164143
										CHANNELS 3 Xrotation Yrotation Zrotation
										JOINT newVegas:RightHandThumb3
										{
											OFFSET -5.159721 -2.978973 2.978967
											CHANNELS 3 Xrotation Yrotation Zrotation
											End Site
											{
												OFFSET -2.494507 5.926697 1.738678
											}
										}
									}
								}
								JOINT newVegas:RightHandIndex1
								{
									OFFSET -18.578728 -0.527832 5.208049
									CHANNELS 3 Xrotation Yrotation Zrotation
									JOINT newVegas:RightHandIndex2
									{
										OFFSET -3.192009 0.000000 0.000000
										CHANNELS 3 Xrotation Yrotation Zrotation
										JOINT newVegas:RightHandIndex3
										{
											OFFSET -3.835129 0.000000 0.000000
											CHANNELS 3 Xrotation Yrotation Zrotation
											End Site
											{
												OFFSET 0.034599 3.816971 0.371180
											}
										}
									}
								}
								JOINT newVegas:RightHandMiddle1
								{
									OFFSET -18.476105 0.000000 0.000000
									CHANNELS 3 Xrotation Yrotation Zrotation
									JOINT newVegas:RightHandMiddle2
									{
										OFFSET -3.324875 0.000000 0.000000
										CHANNELS 3 Xrotation Yrotation Zrotation
										JOINT newVegas:RightHandMiddle3
										{
											OFFSET -4.596550 0.000000 0.000000
											CHANNELS 3 Xrotation Yrotation Zrotation
											End Site
											{
												OFFSET -0.057701 4.578827 0.399218
											}
										}
									}
								}
								JOINT newVegas:RightHandRing1
								{
									OFFSET -17.732719 0.121887 -4.201567
									CHANNELS 3 Xrotation Yrotation Zrotation
									JOINT newVegas:RightHandRing2
									{
										OFFSET -2.733170 0.000000 0.000000
										CHANNELS 3 Xrotation Yrotation Zrotation
										JOINT newVegas:RightHandRing3
										{
											OFFSET -3.178268 0.000000 0.000000
											CHANNELS 3 Xrotation Yrotation Zrotation
											End Site
											{
												OFFSET -0.119102 3.170624 0.185394
											}
										}
									}
								}
								JOINT newVegas:RightHandPinky1
								{
									OFFSET -15.989624 -0.606689 -7.535461
									CHANNELS 3 Xrotation Yrotation Zrotation
									JOINT newVegas:RightHandPinky2
									{
										OFFSET -2.538986 0.000000 0.000000
										CHANNELS 3 Xrotation Yrotation Zrotation
										JOINT newVegas:RightHandPinky3
										{
											OFFSET -2.593102 0.000000 0.000000
											CHANNELS 3 Xrotation Yrotation Zrotation
											End Site
											{
												OFFSET 0.150902 2.584198 0.152708
											}
										}
									}
								}
							}
							JOINT newVegas:Right_CapeC
							{
								OFFSET -15.715958 -8.608795 -6.935905
								CHANNELS 3 Xrotation Yrotation Zrotation
								JOINT newVegas:Right_CapeC1
								{
									OFFSET 0.000000 -8.688499 0.000000
									CHANNELS 3 Xrotation Yrotation Zrotation
									End Site
									{
										OFFSET 0.000000 8.688499 0.000000
									}
								}
							}
							JOINT newVegas:Right_Sleeve
							{
								OFFSET -0.267448 -0.649994 0.577675
								CHANNELS 3 Xrotation Yrotation Zrotation
								End Site
								{
									OFFSET 0.000000 15.991302 0.000000
								}
							}
						}
						JOINT newVegas:Right_CapeA
						{
							OFFSET -5.115540 -8.608795 -10.395824
							CHANNELS 3 Xrotation Yrotation Zrotation
							JOINT newVegas:Right_CapeA1
							{
								OFFSET 0.000000 -8.688499 0.000000
								CHANNELS 3 Xrotation Yrotation Zrotation
								End Site
								{
									OFFSET 0.000000 8.688499 0.000000
								}
							}
						}
						JOINT newVegas:Right_CapeB
						{
							OFFSET -26.118187 -8.608795 -7.079266
							CHANNELS 3 Xrotation Yrotation Zrotation
							JOINT newVegas:Right_CapeB1
							{
								OFFSET 0.000000 -8.688499 0.000000
								CHANNELS 3 Xrotation Yrotation Zrotation
								End Site
								{
									OFFSET 0.000000 8.688499 0.000000
								}
							}
						}
					}
				}
				JOINT newVegas:Left_Collar
				{
					OFFSET 18.625099 8.655502 8.828100
					CHANNELS 3 Xrotation Yrotation Zrotation
					JOINT newVegas:Left_Collar1
					{
						OFFSET 14.783401 10.540405 -1.259500
						CHANNELS 3 Xrotation Yrotation Zrotation
						End Site
						{
							OFFSET 0.000000 18.199875 0.000000
						}
					}
				}
				JOINT newVegas:Collar_Back
				{
					OFFSET 0.000000 15.630707 -20.132601
					CHANNELS 3 Xrotation Yrotation Zrotation
					End Site
					{
						OFFSET 0.000000 22.523010 0.000000
					}
				}
				JOINT newVegas:Left_Peck
				{
					OFFSET 17.239599 -5.132599 25.482599
					CHANNELS 3 Xrotation Yrotation Zrotation
					End Site
					{
						OFFSET 0.000000 22.523010 0.000000
					}
				}
				JOINT newVegas:Right_Peck
				{
					OFFSET -17.239599 -5.132202 25.482599
					CHANNELS 3 Xrotation Yrotation Zrotation
					End Site
					{
						OFFSET 0.000000 22.523010 0.000000
					}
				}
				JOINT newVegas:Right_Collar
				{
					OFFSET -18.625099 8.655792 8.828100
					CHANNELS 3 Xrotation Yrotation Zrotation
					JOINT newVegas:Right_Collar1
					{
						OFFSET -14.783401 10.539993 -1.259500
						CHANNELS 3 Xrotation Yrotation Zrotation
						End Site
						{
							OFFSET 0.000000 18.199631 0.000000
						}
					}
				}
			}
		}
		JOINT newVegas:Belly
		{
			OFFSET 0.000000 -6.540398 9.014299
			CHANNELS 3 Xrotation Yrotation Zrotation
			End Site
			{
				OFFSET 0.000000 11.566666 0.000000
			}
		}
	}
	JOINT newVegas:ElvisFacialAnim_Joint
	{
		OFFSET 1.000000 -95.330101 -8.825800
		CHANNELS 3 Xrotation Yrotation Zrotation
		End Site
		{
			OFFSET 0.000000 35.315800 0.000000
		}
	}
}
MOTION
Frames: 4
Frame Time: 0.016667
-1.035484 89.827232 2.756191 5.048374 -15.557752 0.313358 -0.000000 0.000000 -0.000000 -39.841081 1.353353 11.205599 35.806768 4.186837 1.508225 0.117978 0.612164 -7.710152 0.000000 0.000000 -0.000000 0.000000 -0.000000 0.000002 -13.249289 -10.206329 -14.508155 32.034137 -5.746435 1.668691 -20.404787 -3.421309 13.642421 -0.000000 0.000000 0.000000 0.000002 0.000003 -0.000001 23.100163 4.231874 -0.410050 3.699124 1.240172 -0.846330 3.692586 1.312477 -0.857369 -2.535778 0.264703 0.435528 -2.535777 0.264705 0.435529 -0.000001 -0.000000 -0.000000 -2.535699 0.264699 0.435531 -2.535856 0.264722 0.435526 -0.000002 0.000001 -0.000000 -0.000001 -0.000000 -0.000000 7.811594 -20.950963 9.744735 -33.643012 -3.124193 -85.445619 0.000003 -42.998315 -4.823203 -17.287089 -10.866536 -12.599007 -7.471926 1.860685 -7.166926 30.987004 27.310535 -4.510895 0.000003 -0.000006 -0.000002 -4.713134 11.342524 -75.220955 -0.816394 3.074005 -46.874639 0.000001 -0.000006 0.000001 1.616661 16.582634 -84.688841 0.018004 0.022039 -72.884853 -0.000001 -0.000001 -0.000000 -6.443139 23.132640 -76.210199 0.013351 0.983450 -51.003601 -0.000000 -0.000001 -0.000001 -17.098972 22.128969 -43.123192 0.019717 0.026992 -78.662879 -0.000000 -0.000003 -0.000002 -0.000000 0.000002 0.000001 -0.000000 0.000002 0.000001 -0.000001 0.000002 0.000001 0.000003 0.000000 -0.000000 0.000003 0.000000 -0.000000 0.000003 0.000000 -0.000000 0.000001 0.000000 -0.000000 13.917696 27.239894 -23.496416 -43.128564 -5.411295 84.812242 0.000046 58.104604 5.767223 -18.206878 16.096516 8.636277 9.347178 2.810555 -11.364529 16.169037 -43.266028 15.843558 -0.000000 0.000001 -0.000000 17.076795 -0.396548 31.924345 -0.204414 -0.284213 112.811550 -0.000000 0.000001 -0.000000 9.205473 -5.035866 102.738087 0.014974 -0.019184 61.018519 0.000001 0.000001 0.000000 5.569140 -8.935205 107.329080 0.547992 -0.005782 41.263697 0.000000 0.000004 -0.000001 6.511249 -17.148262 98.228010 0.007405 -0.015737 43.845727 -0.000000 0.000003 0.000000 0.000002 -0.000001 -0.000002 0.000001 -0.000001 -0.000005 0.000002 -0.000001 -0.000002 0.000002 0.000000 0.000001 0.000002 0.000000 0.000001 0.000002 0.000000 0.000001 0.000002 -0.000000 0.000001 0.000004 -0.000001 0.000001 0.000004 -0.000001 0.000001 0.000004 -0.000001 0.000001 0.000004 -0.000001 0.000001 0.000004 -0.000001 0.000001 0.000004 -0.000001 0.000001 0.000004 -0.000001 0.000001 -0.000003 -0.000001 0.000000 -0.000000 0.000000 -0.000000 
-1.018426 89.828842 2.733488 5.033040 -15.815580 0.337011 -0.000000 0.000001 -0.000000 -39.759508 1.328442 11.261392 35.886360 4.429072 1.475205 0.025125 0.625014 -7.760647 -0.000000 -0.000000 -0.000000 -0.000000 0.000000 0.000001 -13.464186 -10.220365 -14.581028 32.129596 -5.444254 1.603213 -20.357539 -3.399451 13.590274 -0.000000 -0.000001 0.000000 0.000001 -0.000002 0.000000 23.099348 4.268271 -0.411023 3.697010 1.270043 -0.848465 3.690616 1.342609 -0.860968 -2.567436 0.371926 0.387135 -2.567457 0.371926 0.387133 -0.000001 -0.000000 0.000001 -2.567371 0.371920 0.387134 -2.567438 0.371929 0.387134 0.000000 -0.000001 -0.000000 -0.000001 -0.000000 0.000001 7.686574 -20.788213 9.327155 -33.679635 -3.519092 -85.304685 0.000001 -43.357262 -4.333579 -17.231589 -10.328820 -12.796306 -7.471931 1.860681 -7.166925 30.987004 27.310535 -4.510896 0.000003 -0.000001 -0.000003 -4.711738 11.345188 -75.237484 -0.816401 3.074004 -46.874642 -0.000001 0.000003 -0.000001 1.623073 16.576299 -84.598662 0.017967 0.022007 -72.792632 0.000000 -0.000002 -0.000001 -6.615171 23.030131 -76.196388 0.013393 0.979922 -50.778652 0.000000 -0.000001 0.000000 -17.265742 21.699672 -43.572102 0.019290 0.026910 -77.688778 0.000001 -0.000001 -0.000002 -0.000000 0.000002 -0.000000 -0.000000 0.000002 -0.000000 -0.000001 0.000002 0.000000 0.000000 0.000001 0.000000 0.000000 0.000000 0.000000 0.000000 0.000001 0.000000 -0.000002 -0.000000 -0.000000 13.325460 26.974534 -22.684445 -43.270669 -4.158109 84.402669 -0.000000 57.768053 5.603176 -18.560286 15.926148 8.602510 9.347176 2.810553 -11.364526 16.169033 -43.266031 15.843551 0.000001 0.000001 0.000001 17.076795 -0.396549 31.924349 -0.204413 -0.284212 112.811550 -0.000000 0.000000 -0.000001 9.205470 -5.035869 102.738094 0.014971 -0.019185 61.018526 -0.000000 0.000001 0.000000 5.569139 -8.935207 107.329080 0.547993 -0.005782 41.263703 -0.000000 -0.000003 -0.000000 6.511256 -17.148264 98.228010 0.007404 -0.015737 43.845730 0.000000 -0.000002 0.000000 -0.000001 0.000000 -0.000002 -0.000001 0.000004 -0.000002 -0.000001 0.000000 -0.000002 -0.000000 -0.000001 0.000001 -0.000000 -0.000001 0.000001 -0.000000 -0.000001 0.000001 -0.000000 -0.000001 0.000001 0.000002 -0.000001 0.000000 0.000002 -0.000001 0.000000 0.000002 -0.000001 0.000000 0.000002 -0.000001 0.000000 0.000002 -0.000001 0.000000 0.000002 -0.000001 0.000000 0.000002 -0.000001 0.000000 0.000001 -0.000001 0.000000 -0.000000 0.000001 -0.000000 
-0.998110 89.823235 2.695388 5.037582 -16.141854 0.372852 0.000000 -0.000002 -0.000000 -39.710833 1.366959 11.335796 35.995664 4.674473 1.476791 -0.086025 0.639827 -7.826663 -0.000000 -0.000000 -0.000000 0.000000 0.000000 -0.000000 -13.756885 -10.120579 -14.685127 32.297974 -5.146186 1.614970 -20.311618 -3.368866 13.503313 0.000000 -0.000001 0.000000 -0.000001 0.000004 -0.000002 23.105915 4.322966 -0.407534 3.678786 1.304123 -0.850522 3.672138 1.375555 -0.864477 -2.593582 0.478241 0.336220 -2.593549 0.478242 0.336220 -0.000003 0.000000 0.000000 -2.593491 0.478242 0.336220 -2.593722 0.478248 0.336220 0.000000 0.000000 -0.000000 -0.000003 0.000000 -0.000000 7.549159 -20.634825 8.867786 -33.753986 -3.967029 -84.994034 0.000013 -43.669641 -3.983658 -17.295432 -9.823975 -12.930734 -7.471926 1.860686 -7.166929 30.987008 27.310544 -4.510893 0.000004 -0.000003 -0.000003 -4.710328 11.347918 -75.254382 -0.816403 3.074003 -46.874642 0.000000 0.000000 0.000001 1.629759 16.569742 -84.504869 0.017941 0.022003 -72.696627 0.000001 -0.000001 -0.000001 -6.793064 22.924027 -76.193424 0.013304 0.979863 -50.545220 0.000000 -0.000002 -0.000001 -17.423644 21.254454 -44.081201 0.018849 0.026804 -76.662685 0.000000 0.000000 -0.000001 0.000003 -0.000001 -0.000000 0.000003 -0.000001 -0.000000 0.000002 -0.000001 0.000000 -0.000001 0.000001 -0.000000 -0.000001 0.000001 -0.000000 -0.000001 0.000001 -0.000000 -0.000003 0.000001 -0.000001 12.767474 26.735601 -21.908214 -43.497749 -2.834416 83.951003 0.000025 57.335729 5.420085 -18.961467 15.774144 8.544112 9.347176 2.810553 -11.364527 16.169028 -43.266035 15.843551 -0.000001 -0.000003 -0.000003 17.076795 -0.396550 31.924345 -0.204413 -0.284216 112.811550 0.000000 0.000001 -0.000000 9.205469 -5.035869 102.738094 0.014970 -0.019185 61.018519 0.000001 -0.000002 0.000000 5.569136 -8.935206 107.329087 0.547995 -0.005781 41.263703 0.000000 -0.000001 -0.000000 6.511253 -17.148261 98.228004 0.007404 -0.015739 43.845733 -0.000000 0.000002 0.000001 0.000001 0.000002 0.000000 -0.000000 0.000004 -0.000000 0.000001 0.000001 0.000000 -0.000001 0.000000 -0.000000 -0.000001 0.000000 0.000000 -0.000001 0.000000 -0.000000 -0.000001 -0.000000 0.000000 -0.000000 -0.000000 -0.000000 -0.000000 -0.000000 -0.000000 -0.000000 -0.000000 -0.000000 -0.000000 -0.000000 -0.000000 -0.000000 -0.000000 -0.000000 -0.000000 -0.000000 -0.000000 -0.000000 -0.000000 -0.000000 0.000001 -0.000001 0.000000 0.000000 -0.000002 -0.000000 
-0.977073 89.815239 2.648780 5.042660 -16.511200 0.417210 -0.000000 0.000000 -0.000000 -39.642206 1.343626 11.425512 36.120533 5.007148 1.425781 -0.207152 0.653470 -7.898584 0.000000 0.000000 -0.000000 0.000000 0.000000 0.000000 -14.132250 -10.132378 -14.813727 32.498477 -4.694686 1.565963 -20.266150 -3.332720 13.397186 0.000000 -0.000002 0.000000 0.000001 0.000003 -0.000001 23.110203 4.376391 -0.406931 3.668311 1.344951 -0.853238 3.661470 1.415975 -0.869073 -2.619861 0.586912 0.283559 -2.619851 0.586910 0.283559 0.000000 0.000001 0.000000 -2.619707 0.586911 0.283558 -2.619929 0.586911 0.283557 0.000000 -0.000001 0.000000 0.000000 0.000001 -0.000000 7.406731 -20.484202 8.380336 -33.834438 -4.568838 -84.564108 0.000005 -43.951752 -3.708012 -17.514610 -9.378003 -12.968273 -7.471930 1.860686 -7.166925 30.987004 27.310544 -4.510897 0.000000 -0.000002 -0.000005 -4.708827 11.350782 -75.272168 -0.816405 3.074002 -46.874639 0.000001 -0.000000 -0.000003 1.633149 16.563844 -84.406337 0.017898 0.022003 -72.597172 0.000000 -0.000001 -0.000001 -6.976356 22.814613 -76.199571 0.013217 0.979796 -50.303367 0.000001 0.000003 0.000000 -17.571328 20.794180 -44.643366 0.018366 0.026685 -75.590052 0.000000 0.000000 0.000001 0.000001 0.000001 0.000000 0.000001 0.000001 0.000000 -0.000000 0.000001 0.000001 0.000001 0.000000 -0.000000 0.000001 0.000000 -0.000000 0.000001 0.000000 -0.000000 -0.000001 0.000000 -0.000000 12.246192 26.525441 -21.177147 -43.721363 -1.487018 83.438609 -0.000018 56.901729 5.282967 -19.419565 15.653897 8.438915 9.347178 2.810555 -11.364526 16.169033 -43.266031 15.843551 -0.000000 0.000000 0.000001 17.076793 -0.396550 31.924345 -0.204412 -0.284215 112.811557 -0.000000 0.000000 -0.000001 9.205469 -5.035867 102.738094 0.014974 -0.019184 61.018519 0.000000 0.000001 0.000001 5.569142 -8.935204 107.329080 0.547993 -0.005780 41.263703 -0.000000 0.000001 0.000000 6.511255 -17.148266 98.228010 0.007403 -0.015733 43.845730 0.000001 -0.000000 0.000000 -0.000001 -0.000001 -0.000000 -0.000000 0.000001 0.000000 -0.000001 -0.000001 -0.000000 -0.000003 0.000000 -0.000000 -0.000003 0.000000 -0.000000 -0.000003 0.000000 -0.000000 -0.000003 -0.000000 -0.000000 0.000001 0.000000 -0.000000 0.000001 0.000000 -0.000000 0.000001 0.000000 -0.000000 0.000001 0.000000 -0.000000 0.000001 0.000000 -0.000000 0.000001 0.000000 -0.000000 0.000001 0.000000 -0.000000 0.000001 0.000000 -0.000000 -0.000000 0.000000 -0.000000 
